# xmcd
#
# Track frame offsets:
#	150
#	12515
#	32079
#	41152
#	56141
#	85651
#	99253
#	108949
#	130418
#	148394
#	171983
#	185205
#	196392
#	209999
#	222741
#	235155
#	246136
#	257502
#	268402
#	283293
#	301104
#	314722
#	327345
#	335632
#	348006
#
# Disc length: 4767 seconds
#
# Revision: 1
# Processed by: cddbd v1.5.2PL0 Copyright (c) Steve Scherf et al.
# Submitted via: EZCDAudioConverter 2.1.7.1
#
DISCID=9b129d19
DTITLE=Cream - Fresh Cream 1/3
DYEAR=1900
DGENRE=
TTITLE0=N.S.U. [Mono]
TTITLE1=Sleepy Time Time [Mono]
TTITLE2=Dreaming [Mono]
TTITLE3=Sweet Wine [Mono]
TTITLE4=Spoonful [Mono]
TTITLE5=Cat's Squirrel [Mono]
TTITLE6=Four Until Late [Mono]
TTITLE7=Rollin' And Tumblin' [Mono]
TTITLE8=I'm So Glad [Mono]
TTITLE9=Toad [Mono]
TTITLE10=The Coffee Song [Session Recording - Mono]
TTITLE11=Wrapping Paper [Single A-Side]
TTITLE12=Cat's Squirrel [Single B-Side]
TTITLE13=I Feel Free [Single A-Side]
TTITLE14=N.S.U. [Single B-Side]
TTITLE15=Spoonful Part I [Single A-Side]
TTITLE16=Spoonful Part II [Single B-Side]
TTITLE17=Wrapping Paper [Alternate Mix]
TTITLE18=Sweet Wine [Alternate Mix]
TTITLE19=I'm So Glad
TTITLE20=Cat's Squirrel [Alternate Master]
TTITLE21=I Feel Free [Alternate Mix]
TTITLE22=Rollin' And Tumblin' [Alternate Master]
TTITLE23=N.S.U.
TTITLE24=Four Until Late
EXTD=
EXTT0=
EXTT1=
EXTT2=
EXTT3=
EXTT4=
EXTT5=
EXTT6=
EXTT7=
EXTT8=
EXTT9=
EXTT10=
EXTT11=
EXTT12=
EXTT13=
EXTT14=
EXTT15=
EXTT16=
EXTT17=
EXTT18=
EXTT19=
EXTT20=
EXTT21=
EXTT22=
EXTT23=
EXTT24=
PLAYORDER=
